<svg width="359" height="359" viewBox="0 0 359 359" fill="none" xmlns="http://www.w3.org/2000/svg">
<path d="M258.005 133.433L258.023 133.412L258.04 133.39C260.54 130.326 261.733 126.401 261.362 122.463C260.991 118.526 259.086 114.893 256.058 112.35C253.03 109.806 249.122 108.556 245.18 108.87C241.238 109.184 237.578 111.037 234.991 114.028L234.972 114.049L234.955 114.07L151.973 212.838L123.253 180.929C121.952 179.423 120.365 178.191 118.584 177.302C116.789 176.407 114.833 175.879 112.831 175.75C110.829 175.621 108.821 175.894 106.926 176.552C105.031 177.211 103.286 178.241 101.795 179.583C100.304 180.925 99.096 182.551 98.2423 184.367L101.727 186.006L98.2423 184.367C97.3887 186.183 96.9065 188.15 96.8243 190.155C96.742 192.159 97.0612 194.16 97.7632 196.039C98.4597 197.904 99.5189 199.612 100.879 201.064L141.179 245.841C142.59 247.41 144.315 248.664 146.242 249.524C148.169 250.383 150.255 250.827 152.365 250.828H152.367H152.556H152.586L152.617 250.827C154.774 250.793 156.898 250.296 158.846 249.369L157.191 245.891L158.846 249.369C160.793 248.442 162.519 247.108 163.906 245.456C163.906 245.456 163.906 245.455 163.907 245.455L258.005 133.433ZM37.4875 179.763C37.4875 101.591 101.094 37.9846 179.266 37.9846C257.439 37.9846 321.045 101.591 321.045 179.763C321.045 257.936 257.439 321.542 179.266 321.542C101.094 321.542 37.4875 257.936 37.4875 179.763Z" stroke="white" stroke-width="7.70156"/>
</svg>
