<svg width="58" height="60" viewBox="0 0 58 60" fill="none" xmlns="http://www.w3.org/2000/svg">
<circle cx="28.9799" cy="28.9799" r="28.0349" stroke="white" stroke-width="1.88999"/>
<path d="M28.6648 8.05078C16.9333 8.05078 7.42212 17.562 7.42212 29.2935C7.42212 41.025 16.9333 50.5362 28.6648 50.5362C40.3963 50.5362 49.9076 41.025 49.9076 29.2935C49.9076 17.562 40.3963 8.05078 28.6648 8.05078Z" stroke="white" stroke-width="1.25999" stroke-miterlimit="10"/>
<path d="M28.6648 8.05078C22.7342 8.05078 17.158 17.562 17.158 29.2935C17.158 41.025 22.7342 50.5362 28.6648 50.5362C34.5954 50.5362 40.1717 41.025 40.1717 29.2935C40.1717 17.562 34.5954 8.05078 28.6648 8.05078Z" stroke="white" stroke-width="1.25999" stroke-miterlimit="10"/>
<path d="M14.5027 15.1309C18.4081 17.9036 23.3245 19.5571 28.6648 19.5571C34.0051 19.5571 38.9216 17.9036 42.827 15.1309M42.827 43.4552C38.9216 40.6824 34.0051 39.0289 28.6648 39.0289C23.3245 39.0289 18.4081 40.6824 14.5027 43.4552" stroke="white" stroke-width="1.25999" stroke-linecap="round" stroke-linejoin="round"/>
<path d="M28.6648 8.05078V50.5362M49.9076 29.2935H7.42212" stroke="white" stroke-width="1.25999" stroke-miterlimit="10"/>
</svg>
