<svg width="58" height="58" viewBox="0 0 58 58" fill="none" xmlns="http://www.w3.org/2000/svg">
<circle cx="28.9799" cy="28.9799" r="28.0349" stroke="white" stroke-width="1.88999"/>
<path d="M29.393 10.709C21.8607 10.709 15.7496 16.4499 15.7496 23.5206C15.7496 31.6564 24.8452 44.5493 28.185 49.0025C28.3236 49.1905 28.5053 49.3435 28.7153 49.449C28.9252 49.5544 29.1574 49.6094 29.393 49.6094C29.6286 49.6094 29.8608 49.5544 30.0708 49.449C30.2807 49.3435 30.4624 49.1905 30.601 49.0025C33.9408 44.5512 43.0364 31.6629 43.0364 23.5206C43.0364 16.4499 36.9253 10.709 29.393 10.709Z" stroke="white" stroke-width="1.25999" stroke-linecap="round" stroke-linejoin="round"/>
<path d="M29.393 28.6683C31.9149 28.6683 33.9593 26.6653 33.9593 24.1945C33.9593 21.7237 31.9149 19.7207 29.393 19.7207C26.8712 19.7207 24.8268 21.7237 24.8268 24.1945C24.8268 26.6653 26.8712 28.6683 29.393 28.6683Z" stroke="white" stroke-width="1.25999" stroke-linecap="round" stroke-linejoin="round"/>
</svg>
